<svg width="78" height="34" viewBox="0 0 78 34" fill="none" xmlns="http://www.w3.org/2000/svg">
<rect x="3.05176e-05" width="34" height="34" rx="17" fill="#FFE1AA"/>
<path d="M9.50003 18.75C10.4665 18.75 11.25 17.9665 11.25 17C11.25 16.0335 10.4665 15.25 9.50003 15.25L9.50003 18.75ZM7.76259 15.7626C7.07918 16.446 7.07918 17.554 7.76259 18.2374L18.8995 29.3744C19.5829 30.0578 20.691 30.0578 21.3744 29.3744C22.0578 28.691 22.0578 27.5829 21.3744 26.8995L11.4749 17L21.3744 7.10051C22.0578 6.41709 22.0578 5.30905 21.3744 4.62563C20.691 3.94221 19.5829 3.94221 18.8995 4.62563L7.76259 15.7626ZM9.50003 15.25L9.00003 15.25L9.00003 18.75L9.50003 18.75L9.50003 15.25Z" fill="white"/>
<rect x="56" y="34" width="34" height="34" rx="17" transform="rotate(-180 56 34)" fill="#FFE1AA"/>
<path d="M31 18.75C31.9665 18.75 32.75 17.9665 32.75 17C32.75 16.0335 31.9665 15.25 31 15.25L31 18.75ZM29.2626 15.7626C28.5792 16.446 28.5792 17.554 29.2626 18.2374L40.3995 29.3744C41.083 30.0578 42.191 30.0578 42.8744 29.3744C43.5578 28.691 43.5578 27.5829 42.8744 26.8995L32.9749 17L42.8744 7.10051C43.5578 6.41709 43.5578 5.30905 42.8744 4.62563C42.191 3.94222 41.083 3.94222 40.3995 4.62563L29.2626 15.7626ZM31 15.25L30.5 15.25L30.5 18.75L31 18.75L31 15.25Z" fill="white"/>
<rect x="44" y="34" width="34" height="34" rx="17" transform="rotate(-90 44 34)" fill="#FFE1AA"/>
<path d="M64.5 18.75C65.4665 18.75 66.25 17.9665 66.25 17C66.25 16.0335 65.4665 15.25 64.5 15.25L64.5 18.75ZM51.2626 15.7626C50.5792 16.446 50.5792 17.554 51.2626 18.2374L62.3995 29.3744C63.083 30.0578 64.191 30.0578 64.8744 29.3744C65.5578 28.691 65.5578 27.5829 64.8744 26.8995L54.9749 17L64.8744 7.1005C65.5578 6.41709 65.5578 5.30905 64.8744 4.62563C64.191 3.94221 63.083 3.94221 62.3995 4.62563L51.2626 15.7626ZM64.5 15.25L52.5 15.25L52.5 18.75L64.5 18.75L64.5 15.25Z" fill="white"/>
</svg>
