<svg width="88" height="88" viewBox="0 0 88 88" fill="none" xmlns="http://www.w3.org/2000/svg">
<g clip-path="url(#clip0_1225_8061)">
<rect width="88" height="88" rx="44" fill="#F3F3F3"/>
<g clip-path="url(#clip1_1225_8061)">
<rect width="88" height="88" fill="#FFEECE"/>
<rect x="26.3999" y="16.5" width="35.2" height="35.2" rx="17.6" fill="white"/>
<rect x="8.80005" y="60.5" width="70.4" height="44" rx="22" fill="white"/>
<g clip-path="url(#clip2_1225_8061)">
<rect width="88" height="88" fill="#5D3E06"/>
<path d="M15.2016 46.366C4.45951 44.9664 -2.55816 61.0282 -12.0705 82.392" stroke="#C98200" stroke-width="2.49504" stroke-linecap="round" stroke-linejoin="round"/>
<path d="M72.1371 46.366C82.8791 44.9664 89.8968 61.0282 99.4091 82.392" stroke="#C98200" stroke-width="2.49504" stroke-linecap="round" stroke-linejoin="round"/>
<path d="M7.3843 56.0394C16.8251 38.0672 21.5455 29.0811 27.1399 25.1073C37.0899 18.0395 50.422 18.0395 60.3721 25.1073C65.9664 29.0811 70.6868 38.0672 80.1276 56.0394V56.0394C88.4914 71.9614 92.6733 79.9223 92.9324 86.3882C93.3926 97.8706 86.9574 108.52 76.5781 113.453C70.7335 116.23 61.741 116.23 43.756 116.23V116.23C25.7709 116.23 16.7784 116.23 10.9338 113.453C0.554512 108.52 -5.88066 97.8706 -5.42052 86.3882C-5.16141 79.9223 -0.979507 71.9614 7.3843 56.0394V56.0394Z" fill="#FFA500"/>
<path d="M27.6665 64.8779C28.1467 64.4876 28.3868 64.2924 28.6035 64.124C37.6096 57.1262 50.2144 57.1262 59.2205 64.124C59.4373 64.2924 59.6774 64.4876 60.1576 64.8779V64.8779C61.5847 66.0381 62.2983 66.6182 62.6694 66.945C79.5623 81.8269 69.6604 109.706 47.165 110.598C46.6709 110.617 45.7512 110.617 43.912 110.617V110.617C42.0728 110.617 41.1531 110.617 40.659 110.598C18.1636 109.706 8.2617 81.8269 25.1546 66.945C25.5257 66.6182 26.2393 66.0381 27.6665 64.8779V64.8779Z" fill="#FFC457"/>
<rect x="28.7856" y="30.4629" width="8.73264" height="8.73264" rx="4.36632" fill="white"/>
<rect x="49.9937" y="30.4629" width="8.73264" height="8.73264" rx="4.36632" fill="white"/>
<path d="M51.2415 34.8288C51.2415 33.1063 52.6378 31.71 54.3603 31.71V31.71C56.0827 31.71 57.4791 33.1063 57.4791 34.8288V34.8288C57.4791 36.5512 56.0827 37.9476 54.3603 37.9476V37.9476C52.6378 37.9476 51.2415 36.5512 51.2415 34.8288V34.8288Z" fill="black"/>
<path d="M30.0334 34.8288C30.0334 33.1063 31.4298 31.71 33.1522 31.71V31.71C34.8747 31.71 36.271 33.1063 36.271 34.8288V34.8288C36.271 36.5512 34.8747 37.9476 33.1522 37.9476V37.9476C31.4298 37.9476 30.0334 36.5512 30.0334 34.8288V34.8288Z" fill="black"/>
<path d="M38.4541 41.8477C39.9095 42.8873 44.0368 44.3427 48.9021 41.8477" stroke="black" stroke-width="3.74256" stroke-linecap="round" stroke-linejoin="round"/>
</g>
</g>
</g>
<rect x="0.5" y="0.5" width="87" height="87" rx="43.5" stroke="#F3F3F3"/>
<defs>
<clipPath id="clip0_1225_8061">
<rect width="88" height="88" rx="44" fill="white"/>
</clipPath>
<clipPath id="clip1_1225_8061">
<rect width="88" height="88" fill="white"/>
</clipPath>
<clipPath id="clip2_1225_8061">
<rect width="88" height="88" fill="white"/>
</clipPath>
</defs>
</svg>
