<svg width="24" height="24" viewBox="0 0 24 24" fill="none" xmlns="http://www.w3.org/2000/svg">
<path d="M5 21.9998C4.45 21.9998 3.97933 21.8041 3.588 21.4128C3.19667 21.0215 3.00067 20.5505 3 19.9998V15.4498L5.75 12.3248L7.175 13.7498L5.175 15.9998H18.825L16.875 13.7998L18.3 12.3748L21 15.4498V19.9998C21 20.5498 20.8043 21.0208 20.413 21.4128C20.0217 21.8048 19.5507 22.0005 19 21.9998H5ZM10.6 14.3998L7.125 10.8748C6.74167 10.4915 6.55 10.0165 6.55 9.4498C6.55 8.88314 6.74167 8.40814 7.125 8.0248L12.025 3.1248C12.4083 2.74147 12.8833 2.5498 13.45 2.5498C14.0167 2.5498 14.4917 2.74147 14.875 3.1248L18.4 6.5998C18.7833 6.98314 18.9793 7.4538 18.988 8.0118C18.9967 8.5698 18.809 9.0408 18.425 9.4248L13.425 14.4248C13.0417 14.8081 12.571 14.9958 12.013 14.9878C11.455 14.9798 10.984 14.7838 10.6 14.3998ZM17 7.9998L13.45 4.4998L8.5 9.4498L12.05 12.9498L17 7.9998Z" fill="#FFA500"/>
</svg>
