<svg width="16" height="16" viewBox="0 0 16 16" fill="none" xmlns="http://www.w3.org/2000/svg">
<path d="M9.65 8.00033L4.75 3.10033C4.58333 2.93366 4.50267 2.73633 4.508 2.50833C4.51333 2.28033 4.59956 2.08321 4.76667 1.91699C4.93333 1.75033 5.13067 1.66699 5.35867 1.66699C5.58667 1.66699 5.78378 1.75033 5.95 1.91699L11.0667 7.05033C11.2 7.18366 11.3 7.33366 11.3667 7.50033C11.4333 7.66699 11.4667 7.83366 11.4667 8.00033C11.4667 8.16699 11.4333 8.33366 11.3667 8.50033C11.3 8.66699 11.2 8.81699 11.0667 8.95033L5.93333 14.0837C5.76667 14.2503 5.57222 14.331 5.35 14.3257C5.12778 14.3203 4.93333 14.2341 4.76667 14.067C4.6 13.9003 4.51667 13.703 4.51667 13.475C4.51667 13.247 4.6 13.0499 4.76667 12.8837L9.65 8.00033Z" fill="#A0A0A0"/>
</svg>
