<svg width="18" height="18" viewBox="0 0 18 18" fill="none" xmlns="http://www.w3.org/2000/svg">
<path d="M8.99996 0.666656C4.39996 0.666656 0.666626 4.39999 0.666626 8.99999C0.666626 13.6 4.39996 17.3333 8.99996 17.3333C13.6 17.3333 17.3333 13.6 17.3333 8.99999C17.3333 4.39999 13.6 0.666656 8.99996 0.666656ZM6.74163 12.575L3.74996 9.58332C3.67281 9.50617 3.61161 9.41458 3.56985 9.31378C3.5281 9.21297 3.50661 9.10493 3.50661 8.99582C3.50661 8.88671 3.5281 8.77867 3.56985 8.67787C3.61161 8.57707 3.67281 8.48547 3.74996 8.40832C3.82711 8.33117 3.9187 8.26997 4.01951 8.22822C4.12031 8.18646 4.22835 8.16497 4.33746 8.16497C4.44657 8.16497 4.55461 8.18646 4.65541 8.22822C4.75622 8.26997 4.84781 8.33117 4.92496 8.40832L7.33329 10.8083L13.0666 5.07499C13.2224 4.91918 13.4338 4.83164 13.6541 4.83164C13.8745 4.83164 14.0858 4.91918 14.2416 5.07499C14.3974 5.2308 14.485 5.44213 14.485 5.66249C14.485 5.88284 14.3974 6.09417 14.2416 6.24999L7.91663 12.575C7.83953 12.6522 7.74796 12.7135 7.64715 12.7554C7.54633 12.7972 7.43827 12.8187 7.32913 12.8187C7.21999 12.8187 7.11192 12.7972 7.01111 12.7554C6.91029 12.7135 6.81872 12.6522 6.74163 12.575Z" fill="#242424"/>
</svg>
