<svg width="12" height="12" viewBox="0 0 12 12" fill="none" xmlns="http://www.w3.org/2000/svg">
<path d="M0.83333 1.74033C2.18 3.46699 4.66666 6.66699 4.66666 6.66699V10.667C4.66666 11.0337 4.96666 11.3337 5.33333 11.3337H6.66666C7.03333 11.3337 7.33333 11.0337 7.33333 10.667V6.66699C7.33333 6.66699 9.81333 3.46699 11.16 1.74033C11.2364 1.64191 11.2836 1.52401 11.2963 1.40006C11.309 1.27611 11.2866 1.1511 11.2317 1.03924C11.1769 0.927384 11.0917 0.833188 10.9859 0.767377C10.8801 0.701565 10.7579 0.666784 10.6333 0.666993H1.36C0.806663 0.666993 0.49333 1.30033 0.83333 1.74033Z" fill="#242424"/>
</svg>
