<svg width="24" height="24" viewBox="0 0 24 24" fill="none" xmlns="http://www.w3.org/2000/svg">
<path d="M4 20C3.45 20 2.97933 19.8043 2.588 19.413C2.19667 19.0217 2.00067 18.5507 2 18V6C2 5.45 2.196 4.97933 2.588 4.588C2.98 4.19667 3.45067 4.00067 4 4H20C20.55 4 21.021 4.196 21.413 4.588C21.805 4.98 22.0007 5.45067 22 6V18C22 18.55 21.8043 19.021 21.413 19.413C21.0217 19.805 20.5507 20.0007 20 20H4ZM20 8L12.525 12.675C12.4417 12.725 12.3543 12.7627 12.263 12.788C12.1717 12.8133 12.084 12.8257 12 12.825C11.9167 12.825 11.8293 12.8127 11.738 12.788C11.6467 12.7633 11.559 12.7257 11.475 12.675L4 8V18H20V8ZM12 11L20 6H4L12 11ZM4 8.25V6.775V6.8V6.788V8.25Z" fill="#D0D0D0"/>
</svg>
