<svg width="20" height="20" viewBox="0 0 20 20" fill="none" xmlns="http://www.w3.org/2000/svg">
<path d="M9.99996 1.66699C5.39996 1.66699 1.66663 5.40033 1.66663 10.0003C1.66663 14.6003 5.39996 18.3337 9.99996 18.3337C14.6 18.3337 18.3333 14.6003 18.3333 10.0003C18.3333 5.40033 14.6 1.66699 9.99996 1.66699ZM7.74163 13.5753L4.74996 10.5837C4.67281 10.5065 4.61161 10.4149 4.56985 10.3141C4.5281 10.2133 4.50661 10.1053 4.50661 9.99616C4.50661 9.88705 4.5281 9.77901 4.56985 9.67821C4.61161 9.5774 4.67281 9.48581 4.74996 9.40866C4.82711 9.33151 4.9187 9.27031 5.01951 9.22855C5.12031 9.1868 5.22835 9.16531 5.33746 9.16531C5.44657 9.16531 5.55461 9.1868 5.65541 9.22855C5.75622 9.27031 5.84781 9.33151 5.92496 9.40866L8.33329 11.8087L14.0666 6.07533C14.2224 5.91951 14.4338 5.83198 14.6541 5.83198C14.8745 5.83198 15.0858 5.91951 15.2416 6.07533C15.3974 6.23114 15.485 6.44247 15.485 6.66283C15.485 6.88318 15.3974 7.09451 15.2416 7.25033L8.91663 13.5753C8.83953 13.6526 8.74796 13.7139 8.64715 13.7557C8.54633 13.7975 8.43827 13.819 8.32913 13.819C8.21999 13.819 8.11192 13.7975 8.01111 13.7557C7.91029 13.7139 7.81872 13.6526 7.74163 13.5753Z" fill="#FFA500"/>
</svg>
