<svg width="12" height="12" viewBox="0 0 12 12" fill="none" xmlns="http://www.w3.org/2000/svg">
<path d="M6.00002 6.7001L4.55002 8.1501C4.45836 8.24176 4.34169 8.2876 4.20002 8.2876C4.05836 8.2876 3.94169 8.24176 3.85002 8.1501C3.75836 8.05843 3.71252 7.94176 3.71252 7.8001C3.71252 7.65843 3.75836 7.54176 3.85002 7.4501L5.30002 6.0001L3.85002 4.5626C3.75836 4.47093 3.71252 4.35426 3.71252 4.2126C3.71252 4.07093 3.75836 3.95426 3.85002 3.8626C3.94169 3.77093 4.05836 3.7251 4.20002 3.7251C4.34169 3.7251 4.45836 3.77093 4.55002 3.8626L6.00002 5.3126L7.43752 3.8626C7.52919 3.77093 7.64586 3.7251 7.78752 3.7251C7.92919 3.7251 8.04586 3.77093 8.13752 3.8626C8.23752 3.9626 8.28752 4.08143 8.28752 4.2191C8.28752 4.35676 8.23752 4.47126 8.13752 4.5626L6.68752 6.0001L8.13752 7.4501C8.22919 7.54176 8.27502 7.65843 8.27502 7.8001C8.27502 7.94176 8.22919 8.05843 8.13752 8.1501C8.03752 8.2501 7.91886 8.3001 7.78152 8.3001C7.64419 8.3001 7.52952 8.2501 7.43752 8.1501L6.00002 6.7001Z" fill="white"/>
</svg>
