<svg width="24" height="24" viewBox="0 0 24 24" fill="none" xmlns="http://www.w3.org/2000/svg">
<path d="M11.9998 13.4002L9.0998 16.3002C8.91647 16.4835 8.68314 16.5752 8.3998 16.5752C8.11647 16.5752 7.88314 16.4835 7.6998 16.3002C7.51647 16.1169 7.4248 15.8835 7.4248 15.6002C7.4248 15.3169 7.51647 15.0835 7.6998 14.9002L10.5998 12.0002L7.6998 9.1252C7.51647 8.94186 7.4248 8.70853 7.4248 8.4252C7.4248 8.14186 7.51647 7.90853 7.6998 7.7252C7.88314 7.54186 8.11647 7.4502 8.3998 7.4502C8.68314 7.4502 8.91647 7.54186 9.0998 7.7252L11.9998 10.6252L14.8748 7.7252C15.0581 7.54186 15.2915 7.4502 15.5748 7.4502C15.8581 7.4502 16.0915 7.54186 16.2748 7.7252C16.4748 7.9252 16.5748 8.16286 16.5748 8.4382C16.5748 8.71353 16.4748 8.94253 16.2748 9.1252L13.3748 12.0002L16.2748 14.9002C16.4581 15.0835 16.5498 15.3169 16.5498 15.6002C16.5498 15.8835 16.4581 16.1169 16.2748 16.3002C16.0748 16.5002 15.8375 16.6002 15.5628 16.6002C15.2881 16.6002 15.0588 16.5002 14.8748 16.3002L11.9998 13.4002Z" fill="#828282"/>
</svg>
