<svg width="24" height="24" viewBox="0 0 24 24" fill="none" xmlns="http://www.w3.org/2000/svg">
<path d="M5 22C4.45 22 3.97933 21.8043 3.588 21.413C3.19667 21.0216 3.00067 20.5506 3 20V15.45L5.75 12.325L7.175 13.75L5.175 16H18.825L16.875 13.8L18.3 12.375L21 15.45V20C21 20.55 20.8043 21.021 20.413 21.413C20.0217 21.805 19.5507 22.0006 19 22H5ZM5 20H19V18H5V20ZM10.625 14.375L7.1 10.85C6.71667 10.4666 6.52933 9.99597 6.538 9.43797C6.54667 8.87997 6.74233 8.40897 7.125 8.02497L12.025 3.12497C12.4083 2.74163 12.8833 2.54163 13.45 2.52497C14.0167 2.5083 14.4917 2.69163 14.875 3.07497L18.4 6.59997C18.7833 6.9833 18.9833 7.44997 19 7.99997C19.0167 8.54997 18.8333 9.01663 18.45 9.39997L13.45 14.4C13.0667 14.7833 12.596 14.971 12.038 14.963C11.48 14.955 11.009 14.759 10.625 14.375ZM17 8.02497L13.475 4.49997L8.525 9.44997L12.05 12.975L17 8.02497Z" fill="#D0D0D0"/>
</svg>
