<svg width="24" height="24" viewBox="0 0 24 24" fill="none" xmlns="http://www.w3.org/2000/svg">
<path d="M6 22C5.16667 22 4.45833 21.7083 3.875 21.125C3.29167 20.5417 3 19.8333 3 19V18C3 17.45 3.196 16.9793 3.588 16.588C3.98 16.1967 4.45067 16.0007 5 16H6V4C6 3.45 6.196 2.97933 6.588 2.588C6.98 2.19667 7.45067 2.00067 8 2H19C19.55 2 20.021 2.196 20.413 2.588C20.805 2.98 21.0007 3.45067 21 4V19C21 19.8333 20.7083 20.5417 20.125 21.125C19.5417 21.7083 18.8333 22 18 22H6ZM18 20C18.2833 20 18.521 19.904 18.713 19.712C18.905 19.52 19.0007 19.2827 19 19V4H8V16H15C15.55 16 16.021 16.196 16.413 16.588C16.805 16.98 17.0007 17.4507 17 18V19C17 19.2833 17.096 19.521 17.288 19.713C17.48 19.905 17.7173 20.0007 18 20ZM10 9C9.71667 9 9.47933 8.904 9.288 8.712C9.09667 8.52 9.00067 8.28267 9 8C9 7.71667 9.096 7.47933 9.288 7.288C9.48 7.09667 9.71733 7.00067 10 7H17C17.2833 7 17.521 7.096 17.713 7.288C17.905 7.48 18.0007 7.71733 18 8C18 8.28333 17.904 8.521 17.712 8.713C17.52 8.905 17.2827 9.00067 17 9H10ZM10 12C9.71667 12 9.47933 11.904 9.288 11.712C9.09667 11.52 9.00067 11.2827 9 11C9 10.7167 9.096 10.4793 9.288 10.288C9.48 10.0967 9.71733 10.0007 10 10H17C17.2833 10 17.521 10.096 17.713 10.288C17.905 10.48 18.0007 10.7173 18 11C18 11.2833 17.904 11.521 17.712 11.713C17.52 11.905 17.2827 12.0007 17 12H10Z" fill="#242424"/>
</svg>
