<svg width="20" height="20" viewBox="0 0 20 20" fill="none" xmlns="http://www.w3.org/2000/svg">
<path d="M15.8333 9.16655H6.52498L10.5916 5.09989C10.9166 4.77489 10.9166 4.24155 10.5916 3.91655C10.5146 3.8393 10.423 3.77801 10.3222 3.73619C10.2214 3.69438 10.1133 3.67285 10.0041 3.67285C9.895 3.67285 9.78694 3.69438 9.68612 3.73619C9.58531 3.77801 9.49374 3.8393 9.41665 3.91655L3.92498 9.40822C3.84772 9.48532 3.78644 9.57689 3.74462 9.6777C3.7028 9.77851 3.68127 9.88658 3.68127 9.99572C3.68127 10.1049 3.7028 10.2129 3.74462 10.3137C3.78644 10.4146 3.84772 10.5061 3.92498 10.5832L9.41665 16.0749C9.4938 16.152 9.58539 16.2132 9.68619 16.255C9.787 16.2967 9.89504 16.3182 10.0041 16.3182C10.1133 16.3182 10.2213 16.2967 10.3221 16.255C10.4229 16.2132 10.5145 16.152 10.5916 16.0749C10.6688 15.9977 10.73 15.9061 10.7718 15.8053C10.8135 15.7045 10.835 15.5965 10.835 15.4874C10.835 15.3783 10.8135 15.2702 10.7718 15.1694C10.73 15.0686 10.6688 14.977 10.5916 14.8999L6.52498 10.8332H15.8333C16.2916 10.8332 16.6666 10.4582 16.6666 9.99989C16.6666 9.54155 16.2916 9.16655 15.8333 9.16655Z" fill="#FFA500"/>
</svg>
