<svg width="24" height="24" viewBox="0 0 24 24" fill="none" xmlns="http://www.w3.org/2000/svg">
<path d="M4 20C3.45 20 2.97933 19.8043 2.588 19.413C2.19667 19.0217 2.00067 18.5507 2 18V6C2 5.45 2.196 4.97933 2.588 4.588C2.98 4.19667 3.45067 4.00067 4 4H20C20.55 4 21.021 4.196 21.413 4.588C21.805 4.98 22.0007 5.45067 22 6V18C22 18.55 21.8043 19.021 21.413 19.413C21.0217 19.805 20.5507 20.0007 20 20H4ZM12 12.825C12.0833 12.825 12.171 12.8123 12.263 12.787C12.355 12.7617 12.4423 12.7243 12.525 12.675L19.6 8.25C19.7333 8.16667 19.8333 8.06267 19.9 7.938C19.9667 7.81333 20 7.67567 20 7.525C20 7.19167 19.8583 6.94167 19.575 6.775C19.2917 6.60833 19 6.61667 18.7 6.8L12 11L5.3 6.8C5 6.61667 4.70833 6.61267 4.425 6.788C4.14167 6.96333 4 7.209 4 7.525C4 7.69167 4.03333 7.83767 4.1 7.963C4.16667 8.08833 4.26667 8.184 4.4 8.25L11.475 12.675C11.5583 12.725 11.646 12.7627 11.738 12.788C11.83 12.8133 11.9173 12.8257 12 12.825Z" fill="#242424"/>
</svg>
