<svg width="16" height="16" viewBox="0 0 16 16" fill="none" xmlns="http://www.w3.org/2000/svg">
<path d="M2.83345 3.74008C4.18012 5.46675 6.66679 8.66675 6.66679 8.66675V12.6667C6.66679 13.0334 6.96679 13.3334 7.33345 13.3334H8.66679C9.03345 13.3334 9.33345 13.0334 9.33345 12.6667V8.66675C9.33345 8.66675 11.8135 5.46675 13.1601 3.74008C13.2365 3.64166 13.2838 3.52377 13.2964 3.39982C13.3091 3.27587 13.2868 3.15085 13.2319 3.039C13.177 2.92714 13.0918 2.83294 12.986 2.76713C12.8802 2.70132 12.758 2.66654 12.6335 2.66675H3.36012C2.80679 2.66675 2.49345 3.30008 2.83345 3.74008Z" fill="white"/>
</svg>
