<svg width="24" height="24" viewBox="0 0 24 24" fill="none" xmlns="http://www.w3.org/2000/svg">
<path d="M7 17H12C12.2833 17 12.521 16.904 12.713 16.712C12.905 16.52 13.0007 16.2827 13 16C13 15.7167 12.904 15.4793 12.712 15.288C12.52 15.0967 12.2827 15.0007 12 15H7C6.71667 15 6.47933 15.096 6.288 15.288C6.09667 15.48 6.00067 15.7173 6 16C6 16.2833 6.096 16.521 6.288 16.713C6.48 16.905 6.71733 17.0007 7 17ZM17 7C16.7167 7 16.4793 7.096 16.288 7.288C16.0967 7.48 16.0007 7.71733 16 8V16C16 16.2833 16.096 16.521 16.288 16.713C16.48 16.905 16.7173 17.0007 17 17C17.2833 17 17.521 16.904 17.713 16.712C17.905 16.52 18.0007 16.2827 18 16V8C18 7.71667 17.904 7.47933 17.712 7.288C17.52 7.09667 17.2827 7.00067 17 7ZM7 13H12C12.2833 13 12.521 12.904 12.713 12.712C12.905 12.52 13.0007 12.2827 13 12C13 11.7167 12.904 11.4793 12.712 11.288C12.52 11.0967 12.2827 11.0007 12 11H7C6.71667 11 6.47933 11.096 6.288 11.288C6.09667 11.48 6.00067 11.7173 6 12C6 12.2833 6.096 12.521 6.288 12.713C6.48 12.905 6.71733 13.0007 7 13ZM7 9H12C12.2833 9 12.521 8.904 12.713 8.712C12.905 8.52 13.0007 8.28267 13 8C13 7.71667 12.904 7.47933 12.712 7.288C12.52 7.09667 12.2827 7.00067 12 7H7C6.71667 7 6.47933 7.096 6.288 7.288C6.09667 7.48 6.00067 7.71733 6 8C6 8.28333 6.096 8.521 6.288 8.713C6.48 8.905 6.71733 9.00067 7 9ZM4 21C3.45 21 2.97933 20.8043 2.588 20.413C2.19667 20.0217 2.00067 19.5507 2 19V5C2 4.45 2.196 3.97933 2.588 3.588C2.98 3.19667 3.45067 3.00067 4 3H20C20.55 3 21.021 3.196 21.413 3.588C21.805 3.98 22.0007 4.45067 22 5V19C22 19.55 21.8043 20.021 21.413 20.413C21.0217 20.805 20.5507 21.0007 20 21H4Z" fill="#242424"/>
</svg>
