<svg width="12" height="12" viewBox="0 0 12 12" fill="none" xmlns="http://www.w3.org/2000/svg">
<path fill-rule="evenodd" clip-rule="evenodd" d="M7.89645 1.39645C8.09171 1.20118 8.40829 1.20118 8.60355 1.39645L10.3536 3.14645C10.5488 3.34171 10.5488 3.65829 10.3536 3.85355L8.60355 5.60355C8.40829 5.79882 8.09171 5.79882 7.89645 5.60355C7.70118 5.40829 7.70118 5.09171 7.89645 4.89645L8.79289 4H3.5C3.22386 4 3 3.77614 3 3.5C3 3.22386 3.22386 3 3.5 3H8.79289L7.89645 2.10355C7.70118 1.90829 7.70118 1.59171 7.89645 1.39645ZM4.10355 6.39645C4.29882 6.59171 4.29882 6.90829 4.10355 7.10355L3.20711 8H8C8.27614 8 8.5 8.22386 8.5 8.5C8.5 8.77614 8.27614 9 8 9H3.20711L4.10355 9.89645C4.29882 10.0917 4.29882 10.4083 4.10355 10.6036C3.90829 10.7988 3.59171 10.7988 3.39645 10.6036L1.64645 8.85355C1.45118 8.65829 1.45118 8.34171 1.64645 8.14645L3.39645 6.39645C3.59171 6.20118 3.90829 6.20118 4.10355 6.39645Z" fill="#FFA500"/>
</svg>
