<svg width="24" height="24" viewBox="0 0 24 24" fill="none" xmlns="http://www.w3.org/2000/svg">
<path d="M12 20C9.76667 20 7.875 19.225 6.325 17.675C4.775 16.125 4 14.2333 4 12C4 9.76667 4.775 7.875 6.325 6.325C7.875 4.775 9.76667 4 12 4C13.15 4 14.25 4.23733 15.3 4.712C16.35 5.18667 17.25 5.866 18 6.75V5C18 4.71667 18.096 4.47933 18.288 4.288C18.48 4.09667 18.7173 4.00067 19 4C19.2833 4 19.521 4.096 19.713 4.288C19.905 4.48 20.0007 4.71733 20 5V10C20 10.2833 19.904 10.521 19.712 10.713C19.52 10.905 19.2827 11.0007 19 11H14C13.7167 11 13.4793 10.904 13.288 10.712C13.0967 10.52 13.0007 10.2827 13 10C13 9.71667 13.096 9.47933 13.288 9.288C13.48 9.09667 13.7173 9.00067 14 9H17.2C16.6667 8.06667 15.9377 7.33333 15.013 6.8C14.0883 6.26667 13.084 6 12 6C10.3333 6 8.91667 6.58333 7.75 7.75C6.58333 8.91667 6 10.3333 6 12C6 13.6667 6.58333 15.0833 7.75 16.25C8.91667 17.4167 10.3333 18 12 18C13.1333 18 14.171 17.7127 15.113 17.138C16.055 16.5633 16.784 15.7923 17.3 14.825C17.4333 14.5917 17.621 14.4293 17.863 14.338C18.105 14.2467 18.3507 14.2423 18.6 14.325C18.8667 14.4083 19.0583 14.5833 19.175 14.85C19.2917 15.1167 19.2833 15.3667 19.15 15.6C18.4667 16.9333 17.4917 18 16.225 18.8C14.9583 19.6 13.55 20 12 20Z" fill="black"/>
</svg>
