<svg width="12" height="12" viewBox="0 0 12 12" fill="none" xmlns="http://www.w3.org/2000/svg">
<path d="M4.06002 4.64503L6.00002 6.58503L7.94002 4.64503C7.98631 4.59874 8.04126 4.56202 8.10175 4.53697C8.16223 4.51192 8.22705 4.49902 8.29252 4.49902C8.35798 4.49902 8.42281 4.51192 8.48329 4.53697C8.54377 4.56202 8.59873 4.59874 8.64502 4.64503C8.69131 4.69132 8.72803 4.74628 8.75308 4.80676C8.77813 4.86724 8.79103 4.93207 8.79103 4.99753C8.79103 5.063 8.77813 5.12782 8.75308 5.18831C8.72803 5.24879 8.69131 5.30374 8.64502 5.35003L6.35002 7.64503C6.30376 7.69139 6.24882 7.72816 6.18833 7.75325C6.12784 7.77834 6.063 7.79126 5.99752 7.79126C5.93203 7.79126 5.86719 7.77834 5.80671 7.75325C5.74622 7.72816 5.69128 7.69139 5.64502 7.64503L3.35002 5.35003C3.30367 5.30378 3.26689 5.24883 3.2418 5.18835C3.21671 5.12786 3.2038 5.06302 3.2038 4.99753C3.2038 4.93205 3.21671 4.86721 3.2418 4.80672C3.26689 4.74624 3.30367 4.69129 3.35002 4.64503C3.54502 4.45503 3.86502 4.45003 4.06002 4.64503Z" fill="#FFA500"/>
</svg>
