<svg width="156" height="68" viewBox="0 0 156 68" fill="none" xmlns="http://www.w3.org/2000/svg">
<rect width="68" height="68" rx="34" fill="#FFA500"/>
<path d="M19 37.5C20.933 37.5 22.5 35.933 22.5 34C22.5 32.067 20.933 30.5 19 30.5L19 37.5ZM15.5251 31.5251C14.1583 32.892 14.1583 35.108 15.5251 36.4749L37.799 58.7487C39.1658 60.1156 41.3819 60.1156 42.7487 58.7487C44.1156 57.3819 44.1156 55.1658 42.7487 53.799L22.9497 34L42.7487 14.201C44.1156 12.8342 44.1156 10.6181 42.7487 9.25126C41.3819 7.88443 39.1658 7.88443 37.799 9.25126L15.5251 31.5251ZM19 30.5L18 30.5L18 37.5L19 37.5L19 30.5Z" fill="white"/>
<rect x="112" y="68" width="68" height="68" rx="34" transform="rotate(-180 112 68)" fill="#FFA500"/>
<path d="M62 37.5C63.933 37.5 65.5 35.933 65.5 34C65.5 32.067 63.933 30.5 62 30.5L62 37.5ZM58.5252 31.5251C57.1583 32.892 57.1583 35.108 58.5252 36.4749L80.799 58.7487C82.1659 60.1156 84.3819 60.1156 85.7488 58.7487C87.1156 57.3819 87.1156 55.1658 85.7488 53.799L65.9498 34L85.7488 14.201C87.1156 12.8342 87.1156 10.6181 85.7488 9.25127C84.3819 7.88443 82.1659 7.88443 80.799 9.25127L58.5252 31.5251ZM62 30.5L61 30.5L61 37.5L62 37.5L62 30.5Z" fill="white"/>
<rect x="88" y="68" width="68" height="68" rx="34" transform="rotate(-90 88 68)" fill="#FFA500"/>
<path d="M129 37.5C130.933 37.5 132.5 35.933 132.5 34C132.5 32.067 130.933 30.5 129 30.5L129 37.5ZM102.525 31.5251C101.158 32.892 101.158 35.108 102.525 36.4749L124.799 58.7487C126.166 60.1156 128.382 60.1156 129.749 58.7487C131.116 57.3819 131.116 55.1658 129.749 53.799L109.95 34L129.749 14.201C131.116 12.8342 131.116 10.6181 129.749 9.25126C128.382 7.88443 126.166 7.88443 124.799 9.25126L102.525 31.5251ZM129 30.5L105 30.5L105 37.5L129 37.5L129 30.5Z" fill="white"/>
</svg>
