<svg width="216" height="216" viewBox="0 0 216 216" fill="none" xmlns="http://www.w3.org/2000/svg">
<g filter="url(#filter0_d_622_5843)">
<path d="M208 106C208 82.9993 200.071 60.7017 185.55 42.8647C171.028 25.0278 150.802 12.742 128.279 8.07772C105.756 3.41347 82.3137 6.65591 61.9026 17.2586C41.4914 27.8614 25.3592 45.1762 16.2246 66.2852C7.08986 87.3942 5.51115 111.007 11.7545 133.144C17.9978 155.281 31.6814 174.589 50.4994 187.815C69.3175 201.04 92.1194 207.375 115.063 205.75C138.006 204.126 159.688 194.642 176.455 178.897L108 106H208Z" fill="#FFBD45"/>
</g>
<circle opacity="0.48" cx="108" cy="106" r="92" fill="#FFEECE"/>
<defs>
<filter id="filter0_d_622_5843" x="-6.10352e-05" y="-0.000152588" width="216" height="216" filterUnits="userSpaceOnUse" color-interpolation-filters="sRGB">
<feFlood flood-opacity="0" result="BackgroundImageFix"/>
<feColorMatrix in="SourceAlpha" type="matrix" values="0 0 0 0 0 0 0 0 0 0 0 0 0 0 0 0 0 0 127 0" result="hardAlpha"/>
<feOffset dy="2"/>
<feGaussianBlur stdDeviation="4"/>
<feComposite in2="hardAlpha" operator="out"/>
<feColorMatrix type="matrix" values="0 0 0 0 0 0 0 0 0 0 0 0 0 0 0 0 0 0 0.08 0"/>
<feBlend mode="normal" in2="BackgroundImageFix" result="effect1_dropShadow_622_5843"/>
<feBlend mode="normal" in="SourceGraphic" in2="effect1_dropShadow_622_5843" result="shape"/>
</filter>
</defs>
</svg>
