<svg width="24" height="24" viewBox="0 0 24 24" fill="none" xmlns="http://www.w3.org/2000/svg">
<path d="M9.5502 12.0001L16.9002 19.3501C17.1502 19.6001 17.2712 19.8918 17.2632 20.2251C17.2552 20.5584 17.1259 20.8501 16.8752 21.1001C16.6252 21.3501 16.3335 21.4751 16.0002 21.4751C15.6669 21.4751 15.3752 21.3501 15.1252 21.1001L7.4252 13.4251C7.2252 13.2251 7.0752 13.0001 6.9752 12.7501C6.8752 12.5001 6.8252 12.2501 6.8252 12.0001C6.8252 11.7501 6.8752 11.5001 6.9752 11.2501C7.0752 11.0001 7.2252 10.7751 7.4252 10.5751L15.1252 2.87509C15.3752 2.62509 15.6712 2.50409 16.0132 2.51209C16.3552 2.52009 16.6509 2.64942 16.9002 2.90009C17.1502 3.15009 17.2752 3.44176 17.2752 3.77509C17.2752 4.10842 17.1502 4.40009 16.9002 4.65009L9.5502 12.0001Z" fill="#242424"/>
</svg>
