<svg width="12" height="12" viewBox="0 0 12 12" fill="none" xmlns="http://www.w3.org/2000/svg">
<path d="M2.5 11.0004C2.225 11.0004 1.98967 10.9026 1.794 10.7069C1.59833 10.5112 1.50033 10.2757 1.5 10.0004V7.72539L2.875 6.16289L3.5875 6.87539L2.5875 8.00039H9.4125L8.4375 6.90039L9.15 6.18789L10.5 7.72539V10.0004C10.5 10.2754 10.4022 10.5109 10.2065 10.7069C10.0108 10.9029 9.77533 11.0007 9.5 11.0004H2.5ZM5.3 7.20039L3.5625 5.43789C3.37083 5.24622 3.275 5.00872 3.275 4.72539C3.275 4.44206 3.37083 4.20456 3.5625 4.01289L6.0125 1.56289C6.20417 1.37122 6.44167 1.27539 6.725 1.27539C7.00833 1.27539 7.24583 1.37122 7.4375 1.56289L9.2 3.30039C9.39167 3.49206 9.48967 3.72739 9.494 4.00639C9.49833 4.28539 9.4045 4.52089 9.2125 4.71289L6.7125 7.21289C6.52083 7.40456 6.2855 7.49839 6.0065 7.49439C5.7275 7.49039 5.492 7.39239 5.3 7.20039ZM8.5 4.00039L6.725 2.25039L4.25 4.72539L6.025 6.47539L8.5 4.00039Z" fill="#007BFF"/>
</svg>
