<svg width="24" height="24" viewBox="0 0 24 24" fill="none" xmlns="http://www.w3.org/2000/svg">
<path d="M3 17.2495V20.9995H6.75L17.81 9.93951L14.06 6.18951L3 17.2495ZM20.71 5.62951L18.37 3.28951C18.2775 3.19681 18.1676 3.12326 18.0466 3.07308C17.9257 3.0229 17.796 2.99707 17.665 2.99707C17.534 2.99707 17.4043 3.0229 17.2834 3.07308C17.1624 3.12326 17.0525 3.19681 16.96 3.28951L15.13 5.11951L18.88 8.86951L20.71 7.03951C20.8027 6.947 20.8762 6.83711 20.9264 6.71614C20.9766 6.59517 21.0024 6.46548 21.0024 6.33451C21.0024 6.20355 20.9766 6.07386 20.9264 5.95289C20.8762 5.83192 20.8027 5.72203 20.71 5.62951Z" fill="white"/>
</svg>
