<svg width="20" height="20" viewBox="0 0 20 20" fill="none" xmlns="http://www.w3.org/2000/svg">
<path d="M4.16668 10.8334H13.475L9.40834 14.9C9.08334 15.225 9.08334 15.7584 9.40834 16.0834C9.73334 16.4084 10.2583 16.4084 10.5833 16.0834L16.075 10.5917C16.1523 10.5146 16.2136 10.423 16.2554 10.3222C16.2972 10.2214 16.3187 10.1133 16.3187 10.0042C16.3187 9.89505 16.2972 9.78698 16.2554 9.68617C16.2136 9.58536 16.1523 9.49379 16.075 9.41669L10.5917 3.91669C10.5145 3.83954 10.4229 3.77834 10.3221 3.73658C10.2213 3.69483 10.1133 3.67334 10.0042 3.67334C9.89507 3.67334 9.78703 3.69483 9.68622 3.73658C9.58542 3.77834 9.49383 3.83954 9.41668 3.91669C9.33953 3.99384 9.27833 4.08543 9.23657 4.18624C9.19482 4.28704 9.17333 4.39508 9.17333 4.50419C9.17333 4.6133 9.19482 4.72134 9.23657 4.82214C9.27833 4.92295 9.33953 5.01454 9.41668 5.09169L13.475 9.16669H4.16668C3.70834 9.16669 3.33334 9.54169 3.33334 10C3.33334 10.4584 3.70834 10.8334 4.16668 10.8334Z" fill="#BCBCBC"/>
</svg>
