<svg width="24" height="24" viewBox="0 0 24 24" fill="none" xmlns="http://www.w3.org/2000/svg">
<rect width="24" height="24" rx="12" fill="#E7E7E7"/>
<path d="M12.0004 13.3998L9.08339 16.3248C8.89939 16.5081 8.66472 16.5998 8.37939 16.5998C8.09406 16.5998 7.85939 16.5081 7.67539 16.3248C7.49206 16.1415 7.40039 15.9081 7.40039 15.6248C7.40039 15.3415 7.49206 15.1081 7.67539 14.9248L10.6004 11.9998L7.67539 9.1078C7.49206 8.9238 7.40039 8.68914 7.40039 8.4038C7.40039 8.11914 7.49206 7.88447 7.67539 7.6998C7.85872 7.51647 8.09206 7.4248 8.37539 7.4248C8.65872 7.4248 8.89206 7.51647 9.07539 7.6998L12.0004 10.6248L14.8924 7.6998C15.0764 7.51647 15.3111 7.4248 15.5964 7.4248C15.8811 7.4248 16.1157 7.51647 16.3004 7.6998C16.5004 7.8998 16.6004 8.13714 16.6004 8.4118C16.6004 8.68647 16.5004 8.9158 16.3004 9.0998L13.3754 11.9998L16.3004 14.9168C16.4837 15.1008 16.5754 15.3355 16.5754 15.6208C16.5754 15.9061 16.4837 16.1408 16.3004 16.3248C16.1004 16.5248 15.8631 16.6248 15.5884 16.6248C15.3137 16.6248 15.0844 16.5248 14.9004 16.3248L12.0004 13.3998Z" fill="white"/>
</svg>
